<?xml version="1.0" encoding="UTF-8"?>
<svg width="267px" height="204px" viewBox="0 0 267 204" version="1.1" xmlns="http://www.w3.org/2000/svg" xmlns:xlink="http://www.w3.org/1999/xlink">
    <title>undraw_Calculator_0evy</title>
    <defs>
        <linearGradient x1="50.0022696%" y1="100.00331%" x2="50.0022696%" y2="-0.000368254062%" id="linearGradient-1">
            <stop stop-color="#808080" stop-opacity="0.25" offset="0%"></stop>
            <stop stop-color="#808080" stop-opacity="0.12" offset="54%"></stop>
            <stop stop-color="#808080" stop-opacity="0.1" offset="100%"></stop>
        </linearGradient>
    </defs>
    <g id="yellow" stroke="none" stroke-width="1" fill="none" fill-rule="evenodd">
        <g id="simulation-calculating" transform="translate(-563.000000, -485.000000)" fill-rule="nonzero">
            <g id="undraw_Calculator_0evy" transform="translate(563.000000, 485.000000)">
                <path d="M152.220616,32.8533668 C135.424192,32.2706116 119.427103,26.8600533 104.148897,20.9392605 C88.8706909,15.0184676 73.743009,8.46052907 57.3488477,5.32142104 C46.8043681,3.30379303 34.7468607,3.01889049 26.2500293,8.65996085 C18.0750082,14.0990094 15.433049,23.461943 14.0108548,32.1592406 C12.9442092,38.701639 12.31616,45.5885105 15.2435961,51.7139152 C17.2756728,55.9667331 20.8856583,59.540965 23.3822838,63.6124814 C32.0659729,77.7850879 25.9282189,95.272924 16.5204566,109.101057 C12.1085404,115.594245 6.98552718,121.792171 3.57797077,128.697172 C0.17041435,135.602174 -1.40489924,143.525055 1.57444178,150.575098 C4.5304256,157.56816 11.5713247,162.810367 19.1987492,166.50115 C34.6871701,174.012217 52.9369315,176.143806 70.742906,177.358527 C110.143913,180.049561 149.757729,178.88405 189.262545,177.71854 C203.884154,177.286006 218.56805,176.848292 232.953491,174.592382 C240.93906,173.341401 249.186748,171.352263 254.984524,166.56331 C262.344639,160.468986 264.169096,150.150334 259.238131,142.507176 C250.96449,129.689151 228.095193,126.506013 222.305202,112.7504 C219.120837,105.177172 222.390845,96.7440572 227.015571,89.7199144 C236.939787,74.65634 253.572711,61.439452 254.449904,44.2209783 C255.052001,32.3949327 247.056052,20.550757 234.692305,14.953717 C221.731653,9.08990468 203.762178,9.82806127 194.206487,19.5354679 C184.349747,29.5200071 167.044655,33.3713714 152.220616,32.8533668 Z" id="Path" fill="#F3F4FA"></path>
                <ellipse id="Oval" fill="#FFC730" opacity="0.1" cx="150" cy="190" rx="96" ry="7"></ellipse>
                <path d="M76,165.090853 C76,165.090853 81,164.154796 84,168.291833 C84,168.291833 81.8,170.319956 77.0666667,167.511786 L76,165.090853 Z" id="Path" fill="#263146"></path>
                <path d="M75.4803174,165 C75.4803174,165 71.6337106,169.740316 73.5211047,175 C73.5211047,175 76.6581432,173.743185 77,167.355811 L75.4803174,165 Z" id="Path" fill="#263146"></path>
                <path d="M72,158.518358 C72,158.518358 74.2,154.130304 83,160.273579 C83,160.273579 81.8266667,163.225542 77.94,162.986194 C74.0533333,162.746845 73.0214286,160.846305 72,158.518358 Z" id="Path" fill="#263146"></path>
                <path d="M71.8471158,158.004357 C71.8471158,158.004357 67.4284323,157.479271 67,167.95737 C67,167.95737 69.8012882,168.558594 71.7913436,165.245299 C73.781399,161.932004 72.9600258,160.073198 71.8471158,158.004357 Z" id="Path" fill="#263146"></path>
                <path d="M69,149.049738 C69,149.049738 71.5925926,141.606962 81,146.901308 C81,146.901308 78.8518519,153.730247 69.962963,151.581817 L69,149.049738 Z" id="Path" fill="#263146"></path>
                <path d="M66,140.354375 C66,140.354375 70.6901463,133.169178 79,139.830863 C79,139.830863 76.088,146.573693 66.7102439,142.909112 L66,140.354375 Z" id="Path" fill="#263146"></path>
                <path d="M65,128.889341 C65,128.889341 70.587049,122.388324 79,128.889341 C79,128.889341 73.7056429,134.595788 65,130.550711 L65,128.889341 Z" id="Path" fill="#263146"></path>
                <path d="M64,119.067011 C64,119.067011 69.7793312,112.408775 78,118.712849 C78,118.712849 71.482713,124.59193 64,120.625321 L64,119.067011 Z" id="Path" fill="#263146"></path>
                <path d="M65,110.702325 C65,110.702325 70.7400653,102.272806 78,107.986174 C78,107.986174 71.8506431,115.229243 65,112.304157 L65,110.702325 Z" id="Path" fill="#263146"></path>
                <path d="M66,101.377774 C66,101.377774 72.4801519,93.0004167 80,99.4230576 C80,99.4230576 72.3312441,106.685927 66,102.913623 L66,101.377774 Z" id="Path" fill="#263146"></path>
                <path d="M69.3192182,91.9448769 C69.3192182,91.9448769 76.6257691,84.8351516 83,87.6659798 C83,87.6659798 75.3843648,95.2171072 69,93.8298437 L69.3192182,91.9448769 Z" id="Path" fill="#263146"></path>
                <path d="M71.6007273,82.967923 C71.6007273,82.967923 80.0821818,72.1226945 85,75.7377706 C85,75.7377706 78.7585455,84.1579791 71,85 L71.6007273,82.967923 Z" id="Path" fill="#263146"></path>
                <path d="M75.007732,73.1707944 C75.007732,73.1707944 82.5154639,64.1093021 88,66.3588936 C88,66.3588936 81.5773196,75.7589723 74,76 L75.007732,73.1707944 Z" id="Path" fill="#263146"></path>
                <path d="M78.3529412,64.3182985 C78.3529412,64.3182985 86.4705882,56.8399595 90,58.1551583 C90,58.1551583 84.1411765,66.4641492 78,65.9796023 L78.3529412,64.3182985 Z" id="Path" fill="#FFC730"></path>
                <path d="M82,56.0095484 C82,56.0095484 89.1176471,46.2880502 93,47.0416547 C93,47.0416547 88.6862745,55.7081066 82,57 L82,56.0095484 Z" id="Path" fill="#FFC730"></path>
                <path d="M85.2607124,44.536355 C85.2607124,44.536355 91.5849251,36.980943 95,37 C95,37 90.0077439,47.0921027 85,46.9993648 L85.2607124,44.536355 Z" id="Path" fill="#FFC730"></path>
                <path d="M87.789808,35.1837988 L93.9980658,20 C93.9980658,20 94.3103155,33.7256909 87,38 L87.789808,35.1837988 Z" id="Path" fill="#FFC730"></path>
                <path d="M90.0393266,19.4885496 C90.0393266,19.4885496 90.9461526,7.01526718 90.363193,6 C90.363193,6 94.2773499,16.3598691 90,25 L90.0393266,19.4885496 Z" id="Path" fill="#263146"></path>
                <path d="M69.2685292,149.743806 C69.2685292,149.743806 63.0357885,146.067429 59,155.061379 C59,155.061379 64.5469868,158.563726 70,152.037614 L69.2685292,149.743806 Z" id="Path" fill="#263146"></path>
                <path d="M65.3070601,138.596785 C65.3070601,138.596785 57.6948367,135.11682 54,144.963625 C54,144.963625 59.8824025,149.018937 66,141.085733 L65.3070601,138.596785 Z" id="Path" fill="#263146"></path>
                <path d="M65,129.889341 C65,129.889341 59.4103704,123.388324 51,129.889341 C51,129.889341 56.2992593,135.595788 65,131.550711 L65,129.889341 Z" id="Path" fill="#263146"></path>
                <path d="M65,119.067011 C65,119.067011 59.2233138,112.408775 51,118.712849 C51,118.712849 57.519932,124.59193 65,120.625321 L65,119.067011 Z" id="Path" fill="#263146"></path>
                <path d="M65,111.299003 C65,111.299003 61.21884,101.994214 53,106.002619 C53,106.002619 57.4426162,114.242254 64.6668038,112.83919 L65,111.299003 Z" id="Path" fill="#263146"></path>
                <path d="M66,101.206371 C66,101.206371 62.2726531,91.7871901 54,96.1564606 C54,96.1564606 59.0644898,104.7901 65.6326531,102.662795 L66,101.206371 Z" id="Path" fill="#263146"></path>
                <path d="M68,91.0126512 C68,91.0126512 66.5882353,79.9871628 60,79 C60,79 61.3952941,90.6271628 67.1105882,93 L68,91.0126512 Z" id="Path" fill="#263146"></path>
                <path d="M71,83.072 C71,83.072 70.3573951,69.472 64,69 C64,69 64.2142016,79.3226667 70.2832483,85 L71,83.072 Z" id="Path" fill="#263146"></path>
                <path d="M74,72.4896552 C74,72.4896552 72.332069,62.2527586 67,61 C67,61 67.6613793,70.9158621 73.4737931,75 L74,72.4896552 Z" id="Path" fill="#263146"></path>
                <path d="M80,64.5977624 C80,64.5977624 79.9386815,53.616054 76.4920727,52 C76.4920727,52 74.3510362,61.9449476 79.00102,66 L80,64.5977624 Z" id="Path" fill="#263146"></path>
                <path d="M82,55.2397959 C82,55.2397959 81.5397305,43.6352041 78.1351975,42 C78.1351975,42 76.9686944,51.1836735 81.4885895,56 L82,55.2397959 Z" id="Path" fill="#FFC730"></path>
                <path d="M86,46.0365211 C86,46.0365211 85.9729811,36.2850151 82.979889,34 C82.979889,34 79.9988053,44.6818524 84.4359067,48 L86,46.0365211 Z" id="Path" fill="#FFC730"></path>
                <path d="M87.8645541,37.0986381 L85.0691803,21 C85.0691803,21 81.2680484,34.1894346 88,40 L87.8645541,37.0986381 Z" id="Path" fill="#FFC730"></path>
                <path d="M87.7440418,20.0307692 C87.7440418,20.0307692 81.8818439,9.20307692 82.0018167,8 C82.0018167,8 82.6252045,19.3481538 90,25 L87.7440418,20.0307692 Z" id="Path" fill="#263146"></path>
                <path d="M88.4573643,17 C88.4573643,17 81.9457364,1.27807487 79,0 C79,0 88.3023256,4.56684492 89,16.5454545 L88.4573643,17 Z" id="Path" fill="#263146"></path>
                <path d="M84.4514659,47 L84,46.8687108 C89.600999,29.87464 90.9977216,19.0354057 87.9333968,16.3203456 L88.2607096,16 C91.5084425,18.8673556 90.1907263,29.5858038 84.4514659,47 Z" id="Path" fill="#444053"></path>
                <path d="M70.6510515,87 L70,86.7796263 C70.5744572,85.223893 71.1981535,83.6445482 71.849205,82.0888149 C77.5171824,68.5332096 82.3398872,55.9404274 85.4337494,46.2623496 L86,46 C82.9006668,55.6780778 78.1627629,68.7693243 72.4893144,82.3354236 C71.8409985,83.8832864 71.2227731,85.4521372 70.6510515,87 Z" id="Path" fill="#444053"></path>
                <path d="M83.3692632,179 C83.2885289,178.906494 75.169685,169.498701 69.5132375,153.431169 C66.196086,144.026785 64.3482154,134.140423 64.0384422,124.14026 C63.6524313,111.638961 66.198085,97.6779221 70.5653065,85 L71.0396205,85.5714286 C61.2404939,114.028571 65.1334013,138.415584 70.2978741,153.098701 C75.8962938,169.018182 83.9217886,178.324675 84,178.418182 L83.3692632,179 Z" id="Path" fill="#444053"></path>
                <path d="M46.7938927,178.011019 C46.7938927,178.011019 35.8102009,177.498374 37.1063054,183.466543 C37.1063054,183.466543 36.8493938,184.520935 38.0819921,185 C38.0819921,185 38.0993119,184.552275 39.2077844,184.70674 C39.6015046,184.758127 40.0016891,184.773156 40.3999696,184.751513 C40.9391307,184.723417 41.4518444,184.559971 41.860613,184.285879 L41.860613,184.285879 C41.860613,184.285879 44.9464386,183.296408 46.1472838,179.383295 C46.1472838,179.383295 47.036371,178.530379 46.9988446,178.310994 L45.1456173,178.924377 C45.1456173,178.924377 45.7806796,179.960859 45.2812897,180.822729 C45.2812897,180.822729 45.2206701,178.962433 44.8656125,179.004967 C44.7934463,179.004967 43.9014724,179.365386 43.9014724,179.365386 C43.9014724,179.365386 44.992625,181.171954 44.1699306,182.483788 C44.1699306,182.483788 44.4816885,180.258596 43.5637347,179.495226 L42.2589703,180.086222 C42.2589703,180.086222 43.5319816,181.950995 42.6688741,183.473259 C42.6688741,183.473259 42.8882593,181.138375 41.9847388,180.229494 L40.8012135,180.945854 C40.8012135,180.945854 41.9962854,182.783763 41.2688503,184.046347 C41.2688503,184.046347 41.173591,181.328658 40.5443019,181.122705 C40.5443019,181.122705 39.5108823,181.83011 39.3521167,182.121131 C39.3521167,182.121131 40.1719245,183.464305 39.6638746,184.160516 C39.6638746,184.160516 39.3521167,182.34947 39.0865452,182.340516 C39.0865452,182.340516 38.0560122,183.540418 37.9492063,184.355277 C37.999116,183.595602 38.3046483,182.859303 38.8354069,182.21963 C38.2414719,182.306774 37.6935077,182.527033 37.2592977,182.85316 C37.2592977,182.85316 37.4180632,182.004722 39.0894319,181.930848 C39.0894319,181.930848 39.955426,181.019728 40.1690378,180.963762 C40.1690378,180.963762 38.5063292,180.856309 37.4988894,181.203295 C37.4988894,181.203295 38.38509,180.404107 40.4750224,180.755571 L41.6296812,180.016825 C41.6296812,180.016825 39.4416028,179.792963 38.5121025,180.04145 C38.5121025,180.04145 39.5801618,179.334045 41.9443257,179.848928 L43.2144504,179.26017 C43.2144504,179.26017 41.3496765,178.949002 40.2354307,179.060933 C40.2354307,179.060933 41.410296,178.570674 43.5868279,179.101228 L44.4961217,178.785582 C44.4961217,178.785582 43.127851,178.57739 42.7294937,178.543811 C42.3311364,178.510232 42.3051566,178.425164 42.3051566,178.425164 C43.1717204,178.31337 44.0613067,178.390885 44.8742724,178.649026 C44.8742724,178.649026 46.8256458,178.105041 46.7938927,178.011019 Z" id="Path" fill="#263146"></path>
                <path d="M18.777653,180.011019 C18.777653,180.011019 7.82146356,179.498374 9.10449101,185.466543 C9.10449101,185.466543 8.84500231,186.520935 10.076132,187 C10.076132,187 10.0963145,186.552275 11.2034663,186.70674 C11.596563,186.759228 11.9964417,186.774263 12.3942311,186.751513 C12.9320343,186.723907 13.4434142,186.560369 13.850251,186.285879 L13.850251,186.285879 C13.850251,186.285879 16.9352833,185.296408 18.1346977,181.383295 C18.1346977,181.383295 19.0198425,180.530379 18.99966,180.310994 L17.1486407,180.924377 C17.1486407,180.924377 17.7829464,181.960859 17.2841514,182.822729 C17.2841514,182.822729 17.2236041,180.962433 16.8689695,181.004967 C16.7968893,181.004967 15.9059781,181.365386 15.9059781,181.365386 C15.9059781,181.365386 16.9958306,183.171954 16.1741164,184.483788 C16.1741164,184.483788 16.4855029,182.258596 15.5657596,181.495226 L14.2625497,182.086222 C14.2625497,182.086222 15.5340443,183.950995 14.6719652,185.473259 C14.6719652,185.473259 14.8939722,183.138375 13.988645,182.229494 L12.809413,182.945854 C12.809413,182.945854 14.003061,184.783763 13.2764926,186.046347 C13.2764926,186.046347 13.1813468,183.328658 12.5528075,183.122705 C12.5528075,183.122705 11.5206191,183.83011 11.3620427,184.121131 C11.3620427,184.121131 12.1808737,185.464305 11.6734291,186.160516 C11.6734291,186.160516 11.3620427,184.34947 11.0967876,184.340516 C11.0967876,184.340516 10.0703656,185.540418 9.96080371,186.355277 C10.0123156,185.595509 10.3184197,184.85935 10.8488317,184.21963 C10.2548556,184.306987 9.70669296,184.527185 9.27171706,184.85316 C9.27171706,184.85316 9.43317669,184.004722 11.102554,183.930848 C11.102554,183.930848 11.9675163,183.019728 12.1808737,182.966001 C12.1808737,182.966001 10.520146,182.856309 9.51390651,183.203295 C9.51390651,183.203295 10.3990513,182.404107 12.4864937,182.755571 L13.6397768,182.016825 C13.6397768,182.016825 11.4543053,181.792963 10.5259124,182.04145 C10.5259124,182.04145 11.5926993,181.334045 13.9540465,181.848928 L15.2226579,181.26017 C15.2226579,181.26017 13.3572225,180.949002 12.2471875,181.060933 C12.2471875,181.060933 13.420653,180.570674 15.5945917,181.101228 L16.5028021,180.785582 C16.5028021,180.785582 15.1361616,180.57739 14.7353958,180.543811 C14.3346299,180.510232 14.3144474,180.425164 14.3144474,180.425164 C15.1800262,180.314788 16.0680534,180.39226 16.8805023,180.649026 C16.8805023,180.649026 18.8007187,180.105041 18.777653,180.011019 Z" id="Path" fill="#263146"></path>
                <path d="M34.7804268,189.011019 C34.7804268,189.011019 23.8238536,188.498374 25.1040426,194.466543 C25.1040426,194.466543 24.8474282,195.520935 26.078601,196 C26.078601,196 26.0987842,195.552275 27.2030914,195.70674 C27.5973191,195.758179 27.9980031,195.773207 28.3967812,195.751513 C28.9343131,195.72294 29.44533,195.559524 29.8528522,195.285879 L29.8528522,195.285879 C29.8528522,195.285879 32.9351092,194.296408 34.1345657,190.383295 C34.1345657,190.383295 35.0226248,189.530379 34.9995583,189.310994 L33.1484741,189.924377 C33.1484741,189.924377 33.7799187,190.960859 33.2839896,191.822729 C33.2839896,191.822729 33.2234401,189.962433 32.8659098,190.004967 C32.7938271,190.004967 31.905768,190.365386 31.905768,190.365386 C31.905768,190.365386 32.9927754,192.169716 32.1710324,193.483788 C32.1710324,193.483788 32.4824298,191.258596 31.5655376,190.495226 L30.262282,191.086222 C30.262282,191.086222 31.5338212,192.950995 30.6717119,194.473259 C30.6717119,194.473259 30.8937266,192.138375 29.9883677,191.229494 L28.8062111,191.945854 C28.8062111,191.945854 30.0027842,193.783763 29.2733071,195.046347 C29.2733071,195.046347 29.1781579,192.328658 28.5524799,192.122705 C28.5524799,192.122705 27.5173721,192.83011 27.3616734,193.121131 C27.3616734,193.121131 28.1805331,194.464305 27.6701874,195.160516 C27.6701874,195.160516 27.3587901,193.34947 27.0935257,193.340516 C27.0935257,193.340516 26.0641845,194.540418 25.957502,195.355277 C26.0073541,194.595602 26.312533,193.859303 26.8426778,193.21963 C26.2494297,193.306774 25.7020991,193.527033 25.2683912,193.85316 C25.2683912,193.85316 25.4269732,193.004722 27.0992923,192.930848 C27.0992923,192.930848 27.9469851,192.019728 28.1747665,191.963762 C28.1747665,191.963762 26.5139806,191.856309 25.5077059,192.203295 C25.5077059,192.203295 26.395765,191.404107 28.4803972,191.766764 L29.6337207,191.028018 C29.6337207,191.028018 27.4481727,190.804156 26.5197472,191.052643 C26.5197472,191.052643 27.5894548,190.345238 29.9480014,190.860121 L31.2195405,190.271363 C31.2195405,190.271363 29.365573,189.966911 28.2526158,190.078842 C28.2526158,190.078842 29.4232392,189.588583 31.6001373,190.119137 L32.5054962,189.803491 C32.5054962,189.803491 31.1416912,189.595299 30.7409113,189.56172 C30.3401314,189.528141 30.3199482,189.443073 30.3199482,189.443073 C31.1855099,189.331279 32.0740674,189.408794 32.886093,189.666935 C32.886093,189.666935 34.8121432,189.105041 34.7804268,189.011019 Z" id="Path" fill="#263146"></path>
                <ellipse id="Oval" fill="#FFC730" opacity="0.1" cx="28" cy="196" rx="7" ry="1"></ellipse>
                <ellipse id="Oval" fill="#FFC730" opacity="0.1" cx="249" cy="196" rx="7" ry="1"></ellipse>
                <ellipse id="Oval" fill="#FFC730" opacity="0.1" cx="182" cy="203" rx="7" ry="1"></ellipse>
                <ellipse id="Oval" fill="#FFC730" opacity="0.1" cx="260" cy="186" rx="7" ry="1"></ellipse>
                <ellipse id="Oval" fill="#FFC730" opacity="0.1" cx="41" cy="185" rx="7" ry="1"></ellipse>
                <ellipse id="Oval" fill="#FFC730" opacity="0.1" cx="12" cy="188" rx="7" ry="1"></ellipse>
                <rect id="Rectangle" fill="#263146" x="78" y="20" width="112" height="167" rx="9.8"></rect>
                <rect id="Rectangle" fill="#000000" opacity="0.1" x="89" y="36" width="93" height="32" rx="16"></rect>
                <rect id="Rectangle" fill="#FFFFFF" x="89" y="35" width="91" height="32" rx="10.2"></rect>
                <rect id="Rectangle" fill="#F5F9FF" opacity="0.392666481" x="93" y="82" width="16" height="16" rx="8"></rect>
                <rect id="Rectangle" fill="#F5F9FF" opacity="0.392666481" x="115" y="82" width="16" height="16" rx="8"></rect>
                <rect id="Rectangle" fill="#F5F9FF" opacity="0.392666481" x="137" y="82" width="16" height="16" rx="8"></rect>
                <rect id="Rectangle" fill="#FFFFFF" x="160" y="82" width="16" height="16" rx="8"></rect>
                <rect id="Rectangle" fill="#F5F9FF" opacity="0.392666481" x="93" y="105" width="16" height="16" rx="8"></rect>
                <rect id="Rectangle" fill="#F5F9FF" opacity="0.392666481" x="115" y="105" width="16" height="16" rx="8"></rect>
                <rect id="Rectangle" fill="#F5F9FF" opacity="0.392666481" x="137" y="105" width="16" height="16" rx="8"></rect>
                <rect id="Rectangle" fill="#F5F9FF" opacity="0.392666481" x="93" y="130" width="16" height="16" rx="8"></rect>
                <rect id="Rectangle" fill="#F5F9FF" opacity="0.392666481" x="115" y="130" width="16" height="16" rx="8"></rect>
                <rect id="Rectangle" fill="#F5F9FF" opacity="0.392666481" x="137" y="130" width="16" height="16" rx="8"></rect>
                <rect id="Rectangle" fill="#F5F9FF" opacity="0.392666481" x="137" y="155" width="14.4" height="16" rx="7.2"></rect>
                <rect id="Rectangle" fill="#FFFFFF" x="160" y="105" width="16" height="16" rx="8"></rect>
                <rect id="Rectangle" fill="#F5F9FF" opacity="0.392666481" x="93" y="155" width="32.8" height="16" rx="8"></rect>
                <rect id="Rectangle" fill="#F5F9FF" opacity="0.392666481" x="161" y="131" width="16" height="36.8" rx="8"></rect>
                <rect id="Rectangle" fill="#263146" x="170" y="63" width="7" height="1"></rect>
                <rect id="Rectangle" fill="#263146" x="158" y="63" width="7" height="1"></rect>
                <rect id="Rectangle" fill="#263146" x="146" y="63" width="7" height="1"></rect>
                <rect id="Rectangle" fill="#263146" x="134" y="63" width="7" height="1"></rect>
                <path d="M229.628692,124.091169 C230.464135,121.306595 229.628692,118.522022 229.628692,118.522022 L229.628692,115.894725 C229.628692,115.894725 230.583856,110.758734 226.320754,107.463655 L223.494303,104.993635 C223.494303,104.993635 221.909303,103.645179 221.448639,103.560095 C221.362794,103.54178 221.275867,103.528862 221.188376,103.521421 L221.105092,103.472433 C220.862183,103.060844 220.654965,102.629579 220.485667,102.183278 C220.856524,102.2308 221.228637,102.105064 221.492883,101.842941 C221.595013,101.726541 221.675231,101.59293 221.729722,101.44846 L221.729722,101.44846 C221.893688,101.084919 221.922316,100.644028 222.060256,100.257281 C222.181254,99.9436766 222.357497,99.6538455 222.580781,99.4012829 C222.552152,99.4476925 222.52092,99.4915237 222.494894,99.5405116 C222.895699,99.0454763 223.418826,98.6226336 223.796207,98.1018152 C223.871098,97.9984959 223.939754,97.8908784 224.001815,97.7795266 C223.986199,97.8027314 223.965378,97.8233578 223.94716,97.8465626 C224.467685,97.0189255 224.626445,96.0159633 224.777397,95.0490974 C224.85014,94.7200329 224.85545,94.379849 224.793013,94.0487136 C224.719866,93.8289279 224.625746,93.6165469 224.511929,93.4144496 C223.89771,92.1588132 223.90812,90.5783098 222.92693,89.5753476 C222.187784,88.8250597 221.068655,88.5955902 220.014592,88.4666748 C218.960528,88.3377593 217.851809,88.2629884 216.946096,87.7163869 C216.693168,87.5264881 216.41343,87.374461 216.115858,87.2651828 C215.807053,87.1584369 215.465234,87.2839341 215.301236,87.5642667 C215.282495,87.6447447 215.245067,87.719784 215.191926,87.7834229 C215.0963,87.8371628 214.980895,87.8438318 214.879611,87.8014711 L213.476795,87.4301946 L213.492411,87.4998089 L213.455974,87.4998089 L213.508027,87.7189652 C213.564656,87.7090764 213.620383,87.7404684 213.640761,87.7937362 L213.414332,88.1392296 C212.980255,88.1313824 212.551398,88.0439648 212.149456,87.8813987 C212.146852,87.9036696 212.146852,87.9261638 212.149456,87.9484347 L212.128635,87.9484347 C212.102609,88.3403377 212.552863,88.5955902 212.690802,88.9642884 C212.746131,89.1256315 212.746131,89.3005589 212.690802,89.461902 C212.634442,89.6115372 212.545594,89.7470835 212.43054,89.8589616 C211.933438,90.346262 211.295795,90.2508646 210.723217,90.5576833 C210.623079,90.6000519 210.546898,90.6840117 210.515007,90.7871528 C210.492353,90.8252369 210.485805,90.8706454 210.496788,90.9134899 C210.519421,90.9726833 210.560428,91.0232369 210.613907,91.0578752 C210.780599,91.1913654 210.963299,91.3039447 211.157855,91.3930554 C211.100598,91.4446216 211.045942,91.4961878 210.99389,91.5503322 C209.517853,93.0363873 208.892465,95.156715 209.328625,97.1962803 C209.764785,99.2358455 211.204357,100.922796 213.161877,101.688243 C213.182698,101.796532 213.198314,101.907399 213.21393,102.023423 C213.21393,102.036315 213.21393,102.04405 213.21393,102.056941 L213.229546,102.206483 L211.340039,103.00318 C210.758276,102.998747 210.231246,102.662391 209.986674,102.139447 C209.54683,101.239617 207.993062,102.139447 207.993062,102.139447 C207.993062,102.139447 203.25368,101.788797 201.486497,102.655109 C201.486497,102.655109 198.657443,101.4794 198.259241,101.399472 C197.861039,101.319545 197.265038,101.007569 196.986557,101.087497 C196.708076,101.167424 196.348914,100.571835 196.148511,100.615666 C195.948109,100.659498 195.87003,100.223763 195.232387,100.066487 C194.594744,99.9092097 194.355302,100.10774 193.63958,99.4012829 C192.923858,98.6948262 187.104386,95.9102526 187.104386,95.9102526 L184.49135,93.7805695 L181.703937,91.5838503 L181.654487,91.6740911 C181.636269,91.6096334 181.61805,91.5425973 181.599832,91.4704047 C181.322501,90.3760712 180.974774,89.3004379 180.558782,88.2500968 C180.379201,87.8246759 180.298519,87.2883876 180.056475,87.5720016 C179.908125,87.74217 179.65567,87.3683152 179.275687,87.1156409 C179.112551,87.0039806 178.907308,86.9710942 178.716958,87.026115 C178.526608,87.0811358 178.371422,87.2182048 178.294497,87.3992549 L178.294497,87.3992549 C176.123907,90.771683 175.345722,91.0088874 176.60279,92.249054 C177.724522,93.3499919 178.468873,94.3117011 179.382395,94.6159415 L179.491705,94.6494596 C179.472088,94.6545964 179.451461,94.6545964 179.431845,94.6494596 L184.730791,100.925063 C184.730791,100.925063 188.554049,104.220142 191.185304,105.277249 C193.816558,106.334356 193.613554,106.651488 193.613554,106.651488 C193.613554,106.651488 201.582794,110.650445 202.816439,110.573095 C204.050084,110.495746 203.813245,118.769539 203.295322,120.112838 C202.7774,121.456137 201.941957,131.093856 201.941957,131.093856 C201.941957,131.093856 201.142951,133.133298 201.980996,134.543633 C201.980996,134.543633 202.165783,137.245701 201.999215,137.895435 C201.273082,139.004108 200.237237,140.886273 200.068066,142.822583 C200.068066,142.925716 200.047245,143.021113 200.036835,143.121667 C199.983732,143.182739 199.920327,143.23421 199.849446,143.273787 L200.026424,143.222221 C199.951106,144.029277 199.776296,144.824157 199.505899,145.589109 C199.084566,146.663393 198.861533,147.803943 198.847434,148.95638 L198.847434,155.185575 L198.326909,159.053038 C198.326909,159.053038 197.689266,161.979419 198.326909,162.66267 C198.595734,163.003365 198.720745,163.434045 198.675661,163.864162 C198.649026,164.363501 198.791964,164.857292 199.081671,165.266762 C199.306136,165.509638 199.402501,165.842809 199.341933,166.166592 C199.131121,166.844687 199.654249,174.061374 199.654249,174.061374 C199.654249,174.061374 199.500694,176.04925 199.289881,176.154961 C199.079068,176.260672 199.654249,178.454812 199.654249,178.454812 C199.654249,178.454812 197.501877,180.233846 198.051031,181.174928 L198.600185,182.0103 L198.454438,182.152107 L198.365949,182.242348 C198.19991,182.147512 198.00635,182.111161 197.816795,182.139216 C197.140336,182.824764 196.416814,183.46313 195.65141,184.049743 C194.68063,184.743308 192.038965,185.748848 192.038965,185.748848 L189.956864,185.916438 L189.917825,185.916438 C189.917825,185.916438 188.921019,185.823619 189.480584,187.352557 C190.040148,188.881494 195.042395,188.412242 195.042395,188.412242 L197.962542,187.955881 C197.962542,187.955881 203.167794,187.981664 204.659098,187.654219 C205.281126,187.517568 205.439886,187.187545 205.387834,186.854943 L205.387834,186.854943 L205.372218,186.839473 C205.300625,186.522267 205.154373,186.226313 204.945387,185.97574 C204.93466,185.959227 204.922466,185.943695 204.90895,185.92933 L205.002645,184.872223 C207.212274,183.61143 204.378015,181.131097 204.378015,181.131097 C204.378015,181.131097 205.348794,179.040089 205.845896,178.361993 C206.342997,177.683898 206.342997,167.692951 206.342997,167.692951 C206.342997,167.692951 206.60326,164.083319 205.918769,163.247947 C205.894748,162.693646 206.180892,162.171307 206.66312,161.889178 C207.155017,161.556576 208.641116,156.974921 209.807093,153.171915 L210.541033,157.653016 C210.541033,157.653016 210.382273,159.798169 210.858553,160.424698 C211.039532,160.66349 211.11127,160.966462 211.056353,161.26007 C210.943399,161.861331 210.980024,162.480801 211.163061,163.064887 C211.219027,163.315454 211.355011,163.541483 211.550852,163.709464 C211.97508,163.918307 212.001106,164.663438 212.159866,164.820715 C212.318627,164.977992 213.302419,164.59898 213.354472,165.173943 C213.384201,165.678863 213.384201,166.185069 213.354472,166.689989 L213.674595,175.997684 C213.674595,175.997684 213.15407,176.771177 213.036951,178.833824 C212.992707,179.713027 212.826139,180.213219 212.654365,180.499411 C212.458872,180.814416 212.490396,181.218306 212.732444,181.499795 L212.823536,181.605506 L212.43054,181.90459 C212.104913,182.155189 212.002597,182.598368 212.185893,182.964275 C211.926572,183.18777 211.830716,183.545147 211.943848,183.866683 C211.959936,183.918348 211.98268,183.967743 212.011517,184.013647 C211.712968,184.059995 211.435928,184.19587 211.217716,184.402971 C210.825184,184.937269 210.35205,185.408591 209.8149,185.800415 C209.035389,186.392197 208.289061,187.025684 207.579245,187.69805 C207.24463,188.149267 206.795747,188.505018 206.277932,188.729374 C206.150969,188.78038 206.019371,188.819232 205.884935,188.845397 C204.843885,189.056819 205.169213,190.134552 206.017669,190.312455 C206.866125,190.490359 209.682166,191.343779 211.873578,190.846165 C211.873578,190.846165 212.524234,191.103996 213.479398,190.624431 C214.434562,190.144865 216.566112,189.557011 216.566112,189.557011 C216.566112,189.557011 217.760718,189.557011 217.92208,189.087758 C217.964077,188.938217 217.986814,188.784014 217.989749,188.628819 L218.023583,188.595301 L217.992351,188.56694 C217.995262,188.215525 217.968273,187.864493 217.91167,187.517568 C217.880438,187.337087 217.846604,187.177232 217.815373,187.048316 C217.71387,186.656413 217.523879,186.148486 217.443197,185.934487 C217.456827,185.917463 217.469014,185.899354 217.479634,185.880342 C217.935093,185.106849 217.177729,183.271094 217.177729,183.271094 C217.426427,182.880185 217.728603,182.525301 218.075635,182.216565 C218.499863,181.902012 219.61639,173.744242 219.61639,173.744242 C219.61639,173.744242 219.561735,171.653234 220.136915,170.712151 C220.712095,169.771068 219.340512,164.073005 219.340512,164.073005 C219.340512,164.073005 218.754921,162.765803 218.968336,162.293972 C219.181751,161.822142 218.754921,160.097253 218.754921,160.097253 L218.754921,158.034606 C218.753676,157.789006 218.712369,157.545221 218.632597,157.312679 C218.468632,156.827957 218.226588,155.897188 218.489453,155.229406 C218.861628,154.288323 219.710084,148.48455 219.710084,148.48455 C219.710084,148.48455 219.046415,145.924289 220.019797,143.884847 C220.095789,143.721974 220.182739,143.564342 220.280059,143.413016 C221.000987,142.291452 220.784969,140.298419 220.428409,138.692132 C220.376357,138.434302 220.316496,138.202254 220.256636,137.977941 C220.233212,137.879965 220.207186,137.787146 220.18116,137.694327 L220.295675,137.647917 C220.295675,137.647917 220.295675,137.495797 220.332112,137.235388 C221.126457,137.079441 221.820012,136.604277 222.247645,135.923029 C222.247645,135.923029 224.678497,133.215804 226.828266,132.07877 C228.978036,130.941736 229.139398,129.294196 229.139398,129.294196 C228.821878,128.745017 229.709373,126.509623 229.709373,126.509623 L229.628692,124.091169 Z M222.617218,127.700802 L220.316496,130.343568 L220.316496,130.328098 C219.717892,129.503039 220.873458,127.659549 220.873458,127.659549 L222.786388,123.431122 C222.770773,123.972567 222.703104,124.462446 222.526126,124.676445 C222.005601,125.382902 223.483892,126.561189 223.483892,126.561189 C222.695296,126.563767 222.617218,127.700802 222.617218,127.700802 L222.617218,127.700802 Z" id="Shape" fill="url(#linearGradient-1)"></path>
                <path d="M182,92.7714165 L180.634044,95 C180.201594,94.9688799 179.77522,94.8938089 179.364243,94.7764281 C178.046616,94.4455117 176.960547,93.6559248 176.380633,92.6073053 C175.161737,90.3430454 177.178148,88.8803145 178.117066,88.4474413 C179.055983,88.0145681 179.929856,87.5222343 180.634044,88.9421536 C181.076048,89.9055005 181.445372,90.8913319 181.739818,91.893778 C181.903846,92.4146529 182,92.7714165 182,92.7714165 Z" id="Path" fill="#FFF2F4"></path>
                <path d="M221,104.442564 L218.974457,107.288052 C218.974457,107.288052 209.403701,111.595942 211.232207,106.544458 C212.036119,104.313675 212.130697,102.685203 211.986203,101.557418 C211.986203,101.545025 211.986203,101.537589 211.986203,101.525196 C211.797047,100.114845 211.234834,99.5026194 211.234834,99.5026194 C211.234834,99.5026194 220.563891,94.9964378 219.174122,98.0773969 C218.890577,98.7177389 218.777818,99.4139188 218.845726,100.104931 C218.960313,101.1002 219.302737,102.060096 219.849302,102.918196 C220.177851,103.461358 220.563348,103.97204 221,104.442564 L221,104.442564 Z" id="Path" fill="#FFF2F4"></path>
                <path d="M218.570044,163.894289 C218.570044,163.894289 219.961157,169.606075 219.366483,170.538135 C218.771809,171.470195 218.835524,173.573171 218.835524,173.573171 C218.835524,173.573171 217.712546,181.735833 217.285124,182.047385 C216.934256,182.351006 216.627843,182.700462 216.37453,183.085892 C216.37453,183.085892 217.13911,184.934433 216.679831,185.697736 C216.609018,185.813936 216.502031,185.904917 216.37453,185.957363 C215.657735,186.253337 213.008251,184.939626 211.500328,184.139976 C211.253846,184.008143 211.088729,183.766903 211.058053,183.493803 C211.027377,183.220703 211.135009,182.950162 211.34635,182.769147 C211.15936,182.404236 211.261561,181.960989 211.590591,181.70987 L211.98881,181.408703 L211.895892,181.302256 C211.65151,181.019803 211.619426,180.616086 211.816248,180.300098 C211.98881,180.017104 212.156062,179.521218 212.201193,178.635891 C212.31004,176.595225 212.843654,175.811153 212.843654,175.811153 L212.522423,166.495748 C212.552764,165.990777 212.552764,165.484499 212.522423,164.979528 C212.469328,164.405753 211.479089,164.784808 211.319802,164.626436 C211.160514,164.468064 211.131311,163.725531 210.703889,163.515234 C210.506964,163.346113 210.371041,163.119409 210.31629,162.868763 C210.12733,162.281012 210.089937,161.656682 210.207443,161.051377 C210.262999,160.757754 210.190838,160.454775 210.008333,160.215379 C209.527816,159.587082 209.687103,157.445162 209.687103,157.445162 L208.949071,152.958814 C207.772997,156.764941 206.278348,161.349947 205.781901,161.68227 C205.296665,161.966423 205.009368,162.487501 205.033249,163.040117 C205.728805,163.878711 205.460671,167.490118 205.460671,167.490118 C205.460671,167.490118 205.460671,177.480552 204.958915,178.16337 C204.457159,178.846188 203.485504,180.946568 203.485504,180.946568 C203.485504,180.946568 206.352682,183.44158 204.096107,184.700769 L204.072214,184.700769 C201.770507,185.957363 197.010461,182.452403 197.010461,182.452403 L197.506908,181.966901 L197.652922,181.824106 L197.090105,181.003686 C196.537908,180.061241 198.70422,178.282798 198.70422,178.282798 C198.70422,178.282798 198.125475,176.083761 198.337858,175.97991 C198.550242,175.876059 198.70422,173.887319 198.70422,173.887319 C198.70422,173.887319 198.173261,166.667101 198.390954,165.98688 C198.44974,165.662584 198.351717,165.329941 198.125475,165.085975 C197.833193,164.676286 197.689292,164.182824 197.716637,163.683991 C197.762947,163.25367 197.636328,162.822601 197.363549,162.48192 C196.721089,161.801698 197.363549,158.873109 197.363549,158.873109 L197.894508,154.999479 L197.894508,148.848924 C197.901666,147.66163 198.129247,146.485477 198.566171,145.377715 C198.890555,144.479701 199.087082,143.542317 199.150225,142.591921 C199.325442,140.608373 200.416562,138.681943 201.149285,137.583723 C201.536885,137.002159 201.826258,136.654259 201.826258,136.654259 L218.94437,136 C218.94437,136 219.20985,136.745129 219.496568,137.781039 C219.554973,138.006914 219.613379,138.245771 219.669129,138.495012 C220.027526,140.104698 220.242565,142.09863 219.517806,143.220218 C219.419509,143.372263 219.330849,143.530067 219.252327,143.692738 C218.272708,145.733404 218.941716,148.295919 218.941716,148.295919 C218.941716,148.295919 218.086872,154.101171 217.712546,155.046212 C217.447067,155.713453 217.691308,156.645512 217.85856,157.123225 C217.93671,157.357121 217.977018,157.60152 217.978025,157.847584 L217.978025,159.916808 C217.978025,159.916808 218.408102,161.643326 218.193064,162.115846 C217.978025,162.588367 218.570044,163.894289 218.570044,163.894289 Z" id="Path" fill="#B7B5CE"></path>
                <path d="M219.576819,143.457271 C219.489505,143.631212 219.411459,143.812535 219.343216,144 L218.495238,143.94003 C218.576999,143.37931 218,138.122939 218,138.122939 L219.707636,138 C220.023,139.856072 220.214555,142.158921 219.576819,143.457271 Z" id="Path" fill="#000000" opacity="0.1"></path>
                <path d="M216,185.742135 C215.923862,185.841266 215.80883,185.918884 215.671741,185.963625 C214.901047,186.216125 212.052331,185.095382 210.431018,184.413191 C210.228655,184.326319 210.07506,184.184246 210,184.014508 C210.924833,183.883828 211.529971,184.67898 211.529971,184.67898 C211.841448,184.527419 212.218568,184.47981 212.575897,184.546939 C212.933225,184.614068 213.24052,184.790253 213.428164,185.03558 C214.218839,185.939261 215.914367,185.558298 215.914367,185.558298 L216,185.742135 Z" id="Path" fill="#000000" opacity="0.1"></path>
                <path d="M215.929046,189.081291 C215.780489,189.553493 214.656406,189.553493 214.656406,189.553493 C214.656406,189.553493 212.648408,190.155422 211.749638,190.625031 C210.850867,191.094639 210.241782,190.848159 210.241782,190.848159 C208.184265,191.343713 205.537471,190.482332 204.740214,190.311094 C203.942958,190.139855 203.630988,189.05794 204.616417,188.847784 C204.742781,188.820589 204.866332,188.78062 204.985334,188.728436 C205.479061,188.504607 205.906541,188.146246 206.22331,187.690627 C206.890409,187.018656 207.592156,186.385508 208.325394,185.794032 C208.830145,185.401235 209.274385,184.929597 209.642601,184.395585 C210.816203,183.311075 211.650599,184.800331 211.650599,184.800331 C211.92108,184.623015 212.248423,184.567646 212.558408,184.646777 C212.868392,184.725908 213.134757,184.932836 213.297108,185.220643 C213.982947,186.279208 215.453663,185.830355 215.453663,185.830355 C215.453663,185.830355 215.71859,186.53866 215.842388,187.047186 C215.872099,187.176912 215.904287,187.337772 215.933998,187.519389 C216.000849,188.046077 216.04294,188.728436 215.929046,189.081291 Z" id="Path" fill="#354055"></path>
                <ellipse id="Oval" fill="#575988" cx="213" cy="185" rx="1" ry="1"></ellipse>
                <ellipse id="Oval" fill="#575988" cx="212" cy="187" rx="1" ry="1"></ellipse>
                <ellipse id="Oval" fill="#575988" cx="210" cy="187" rx="1" ry="1"></ellipse>
                <ellipse id="Oval" fill="#575988" cx="212" cy="187" rx="1" ry="1"></ellipse>
                <ellipse id="Oval" fill="#575988" cx="213" cy="186" rx="1" ry="1"></ellipse>
                <path d="M215.930125,189.798257 C215.781555,190.340115 214.65737,190.340115 214.65737,190.340115 C214.65737,190.340115 212.649191,191.030836 211.750338,191.569718 C210.851486,192.108599 210.242347,191.825761 210.242347,191.825761 C208.184644,192.394415 205.53761,191.405969 204.740281,191.209471 C203.942952,191.012973 203.630954,189.771461 204.616473,189.530304 C204.742848,189.499099 204.86641,189.453233 204.985423,189.393351 C205.855795,189.75366 206.764822,189.961224 207.684456,190.009641 C209.717397,190.113845 211.326912,190.009641 211.326912,190.009641 L213.384615,189.214716 C213.774173,188.930587 214.2068,188.742354 214.65737,188.660949 C215.112912,188.549316 215.543947,188.324163 215.922697,188 C216.001934,188.610335 216.044029,189.393351 215.930125,189.798257 Z" id="Path" fill="#DCE6F2"></path>
                <path d="M212.368655,190.999955 C212.244915,191.000814 212.121403,190.989246 212,190.965428 L212.032057,190.808725 C212.486001,190.877791 212.950351,190.813157 213.367765,190.622806 C213.56545,190.545782 213.763134,190.452823 213.955476,190.357208 C214.147818,190.261592 214.417631,190.142073 214.658059,190.054425 L214.877115,189.980058 C214.997329,189.937562 215.120214,189.897722 215.237756,189.847259 C215.304541,189.820699 215.371327,189.788827 215.435441,189.756955 C215.593077,189.674985 215.759846,189.611694 215.932324,189.56838 C216.020668,189.552014 216.109849,189.540487 216.199466,189.533853 C216.281844,189.528363 216.363878,189.518611 216.445236,189.504637 C216.606876,189.464026 216.763622,189.406143 216.912734,189.331998 C217.072133,189.250441 217.240727,189.188029 217.41496,189.146079 L217.532502,189.127487 C217.659243,189.124264 217.78135,189.079439 217.879786,189 L218,189.108895 C217.87743,189.215886 217.722112,189.27859 217.559216,189.286846 L217.447017,189.305438 C217.285006,189.344856 217.128129,189.402788 216.979519,189.478077 C216.819342,189.55721 216.650929,189.618664 216.477293,189.66134 C216.389178,189.678622 216.299878,189.689277 216.210151,189.693212 C216.125938,189.699404 216.042116,189.710043 215.959038,189.725083 C215.798567,189.76638 215.643472,189.826099 215.496883,189.903034 L215.293856,189.995994 C215.170971,190.046457 215.042743,190.088953 214.919858,190.131449 L214.706144,190.205816 C214.47106,190.290808 214.241318,190.399703 214.016919,190.503287 C213.79252,190.60687 213.621549,190.689205 213.418522,190.768885 C213.08601,190.909981 212.729997,190.988338 212.368655,190.999955 Z" id="Path" fill="#575988" opacity="0.5"></path>
                <path d="M212,164 C212,164 213.163265,163.118943 215.155844,163.118943 C217.148423,163.118943 218,163 218,163 C218,163 216.725417,163.399413 215.843228,163.450808 C214.961039,163.502203 212,164 212,164 Z" id="Path" fill="#000000" opacity="0.1"></path>
                <path d="M213,164 C213,164 213.760563,163.13245 214.195171,163.099338 C214.629779,163.066225 215,163 215,163 C214.796111,163.235417 214.570569,163.415414 214.331992,163.533113 C213.975855,163.698675 213,164 213,164 Z" id="Path" fill="#000000" opacity="0.1"></path>
                <path d="M213,166 C213,166 213.991289,166.225 214,167" id="Path" fill="#000000" opacity="0.1"></path>
                <path d="M199,143.999869 C199.063021,144.01863 200.132282,142.014943 200.205807,141.223225 C200.264142,140.722044 200.431016,140.282362 200.670063,140 C200.670063,140 201.359096,140.491541 200.745689,141.999935 C200.132282,143.508328 199,143.999869 199,143.999869 Z" id="Path" fill="#000000" opacity="0.1"></path>
                <path d="M218.878246,98.3094665 C218.614398,99.1349037 218.382393,99.2132299 218.423335,99.999504 C218.116305,100.430316 217.762981,100.798798 217.374767,101.093058 C216.555928,101.737742 215.664304,103 214.645304,103 C213.962571,103.000618 213.285855,102.830968 212.650522,102.499916 C212.486754,100.785778 212,100.04168 212,100.04168 C212,100.04168 220.079209,94.5648737 218.878246,98.3094665 Z" id="Path" fill="#000000" opacity="0.1"></path>
                <path d="M220,96 C220,99.3137085 217.313708,102 214,102 C210.686292,102 208,99.3137085 208,96 C208,92.6862915 210.686292,90 214,90 C215.591299,90 217.117422,90.632141 218.242641,91.7573593 C219.367859,92.8825776 220,94.4087011 220,96 L220,96 Z" id="Path" fill="#F3E2E5"></path>
                <path d="M221,104.713577 L218.974457,107.389855 C218.974457,107.389855 209.403701,111.441571 211.232207,106.690479 C212.036119,104.592352 212.130697,103.06072 211.986203,102 L212.001966,102 C212.11515,102.351525 212.179554,102.713995 212.193749,103.07937 C212.222647,103.811383 212.243665,104.73689 214.295479,105.042284 C217.710792,105.550497 219.534043,103.65752 219.854557,103.286851 C220.181889,103.795081 220.565608,104.273029 221,104.713577 Z" id="Path" fill="#000000" opacity="0.1"></path>
                <path d="M180,92.1670446 L179.008214,95 C178.694222,94.9604404 178.384643,94.8650108 178.086242,94.7157974 L178,94.5646259 C178.410678,94.7944067 179.767967,91 179.767967,91 L179.811088,91.0513983 C179.930185,91.7135299 180,92.1670446 180,92.1670446 Z" id="Path" fill="#000000" opacity="0.1"></path>
                <path d="M219,138.352047 C214.963102,139.684386 201,138.549139 201,138.549139 C201.041718,138.436087 201.065239,138.319611 201.070049,138.202258 C201.448833,137.760773 201.731623,137.49667 201.731623,137.49667 L218.460363,137 C218.460363,137 218.732776,137.565652 219,138.352047 Z" id="Path" fill="#000000" opacity="0.1"></path>
                <path d="M211.935285,101.621361 L210.091135,102.419002 C209.523018,102.414196 209.00914,102.076765 208.773518,101.553808 C208.344586,100.65224 206.831767,101.553808 206.831767,101.553808 C206.831767,101.553808 202.20855,101.200456 200.503097,102.073445 C200.503097,102.073445 197.747145,100.893871 197.359309,100.815925 C196.971472,100.73798 196.388433,100.4236 196.116177,100.501545 C195.843921,100.579491 195.49718,99.9819094 195.301977,100.031275 C195.106775,100.08064 195.029721,99.6389496 194.408155,99.4804606 C193.786589,99.3219716 193.555429,99.5194333 192.867083,98.8127282 C192.178737,98.1060232 186.499886,95.3181757 186.499886,95.3181757 L183.931432,93.1980605 L181.214007,91 C181.214007,91 179.505985,94.2581181 179,94.0606564 L184.162592,100.345655 C184.162592,100.345655 187.889419,103.642745 190.452736,104.702803 C193.016053,105.762861 192.820851,106.07724 192.820851,106.07724 C192.820851,106.07724 200.585287,110.083634 201.787324,110.005689 C202.98936,109.927744 202.763336,118.202948 202.249645,119.538413 C201.735954,120.873877 200.932028,130.533912 200.932028,130.533912 C200.932028,130.533912 200.161492,132.576081 200.970555,133.989492 C200.970555,133.989492 201.163189,136.896855 200.970555,137.406099 C200.970555,137.406099 214.878733,138.910445 218.826447,137.130692 C218.826447,137.130692 219.409486,130.611857 218.826447,129.788234 C218.243408,128.964611 219.370959,127.127697 219.370959,127.127697 L221.854654,121.51303 L227.911069,115.347548 C227.911069,115.347548 228.840849,110.203151 224.687659,106.90606 L221.931708,104.429994 C221.931708,104.429994 220.390636,103.081538 219.938588,102.995799 C219.48654,102.910059 219.653489,102.995799 219.653489,102.995799 C219.653489,102.995799 217.855571,105.648541 214.167272,105.019781 C212.169014,104.679419 212.148467,103.647942 212.112508,102.834711 C212.101975,102.424516 212.042469,102.017111 211.935285,101.621361 L211.935285,101.621361 Z" id="Path" fill="#263146"></path>
                <path d="M219,123 C219,123 210.66416,123.460627 209,127 C209,127 211.160401,125.614733 213.090226,126.024555 C215.02005,126.434378 219,123 219,123 Z" id="Path" fill="#000000" opacity="0.1"></path>
                <path d="M210,132.95845 C210,132.95845 214.212595,133.233047 215.104958,132.370397 C215.99732,131.507746 216,131 216,131 L210,132.95845 Z" id="Path" fill="#000000" opacity="0.1"></path>
                <path d="M220.284183,115 C220.284183,115 216.964487,119.188277 221,121 L220.284183,115 Z" id="Path" fill="#000000" opacity="0.1"></path>
                <path d="M201,107 C201,107 201.666667,110.752852 202,111 L201,107 Z" id="Path" fill="#000000" opacity="0.1"></path>
                <path d="M196,105 C196,105 199.367688,108.648241 200,109 C200,109 196.504178,105 196,105 Z" id="Path" fill="#000000" opacity="0.1"></path>
                <path d="M208,103 C208,103 206.245058,107.345 207.384866,110 C207.384866,109.99 206.747116,106.8525 208,103 Z" id="Path" fill="#000000" opacity="0.1"></path>
                <path d="M215,136.624409 L214.05556,137.533589 L213.922914,137.658432 L212.82991,138.71688 C212.752976,138.776587 212.676041,138.836295 212.596453,138.890574 C208.147504,142.147338 207.256123,137.197057 207.256123,137.197057 C207.256123,137.197057 205.292961,138.510618 205.011751,137.444028 C204.730541,136.377438 209.582735,134.860328 210.317594,134.941748 C210.381981,134.948479 210.44687,134.948479 210.511257,134.941748 C210.861851,134.882107 211.199481,134.759931 211.508755,134.58079 L211.723642,134.464089 C211.970715,134.321772 212.210663,134.166882 212.442584,134 L215,136.624409 Z" id="Path" fill="#F3E2E5"></path>
                <path d="M220,95.4502801 C220.004836,97.7251199 218.817435,99.8341471 216.875445,101 C216.78601,100.849172 216.707471,100.692071 216.640436,100.529912 C216.410769,99.9926694 216.26923,99.412447 216.036893,98.8725178 C215.782824,98.2830861 215.420404,97.7472029 214.968674,97.2930235 C214.892113,97.2030271 214.793659,97.1345382 214.682925,97.0942436 C214.473006,97.0651196 214.260441,97.1244038 214.095405,97.2581027 C213.823547,97.4433544 213.520374,97.5771693 213.200771,97.6529763 C212.87553,97.7280373 212.534975,97.626087 212.303467,97.3843548 C212.052436,97.0834987 212.087153,96.6429595 212.159258,96.2588307 C212.31682,95.4180455 212.578534,94.5906913 212.581204,93.736475 C212.583875,92.8822586 212.258068,91.9635731 211.512985,91.5391512 C210.861372,91.1657673 210.052196,91.2705297 209.328477,91.0610049 C209.216403,91.0314825 209.106619,90.9937754 209,90.9481839 C210.820038,89.0691814 213.590514,88.4868867 216.006276,89.4756149 C218.422039,90.4643431 220.001262,92.8268916 220,95.4502801 L220,95.4502801 Z" id="Path" fill="#000000" opacity="0.1"></path>
                <path d="M209.206683,91.1264641 C209.09582,91.1825263 208.972067,91.2849007 209.005583,91.4019 C209.027008,91.4576855 209.066762,91.5055203 209.119024,91.5383992 C209.407663,91.7586795 209.741147,91.9204691 210.098742,92.0137089 C210.797435,92.1940828 211.581209,92.1087708 212.210291,92.4475813 C212.921875,92.8302666 213.241573,93.6663241 213.241573,94.4414445 C213.241573,95.216565 212.983752,95.9673105 212.836794,96.7278061 C212.767183,97.078804 212.731088,97.4785516 212.973439,97.75155 C213.197757,97.9696293 213.525773,98.0619247 213.839716,97.9952986 C214.148292,97.9278362 214.441079,97.807198 214.703414,97.6394257 C214.863418,97.5173712 215.06939,97.4627409 215.273197,97.4883016 C215.379232,97.5264442 215.473896,97.5883392 215.549065,97.6686755 C215.985443,98.0815228 216.335346,98.5686332 216.580347,99.1043545 C216.807229,99.5918517 216.941295,100.115911 217.163021,100.608283 C217.3562,101.110413 217.718544,101.538621 218.194303,101.827026 C218.689318,102.085399 219.37512,102.070775 219.756694,101.671027 C220.138268,101.271279 220.10733,100.722845 220.287804,100.24266 C220.597189,99.4066027 221.460887,98.8825433 222.00231,98.1610476 C222.608188,97.3493649 222.775771,96.3304959 222.940776,95.3481892 C223.014137,95.0388888 223.019402,94.7186263 222.956245,94.4073197 C222.885531,94.201245 222.794013,94.002079 222.682956,93.8125733 C222.079656,92.6328302 222.092547,91.1484015 221.136033,90.207532 C220.414136,89.5006612 219.318399,89.2861625 218.287118,89.1642882 C217.255836,89.0424139 216.172991,88.9741643 215.288667,88.4598548 C215.040717,88.2826132 214.767239,88.1397943 214.476532,88.0357323 C214.172848,87.934709 213.836227,88.0537952 213.677289,88.3184807 C213.659113,88.3934862 213.622947,88.463539 213.571583,88.5232295 C213.477886,88.5743539 213.364166,88.5806782 213.264776,88.5402919 L211.893172,88.1917314 L212.050442,88.8449776 C211.551916,88.8647408 211.054823,88.7815617 210.593757,88.601229 C210.567975,88.9717268 211.008848,89.2106004 211.145493,89.5567234 C211.245973,89.8777569 211.146191,90.2249142 210.887672,90.4537181 C210.390079,90.9265903 209.768732,90.8364033 209.206683,91.1264641 Z" id="Path" fill="#354055"></path>
                <path d="M204,184.805399 L203.942772,185.638036 L203.919361,185.638036 C201.664065,187.31022 197,182.646071 197,182.646071 L197.486436,182 C197.647858,182.237846 197.725424,182.555706 197.69974,182.874096 L198.651802,182.943195 L199.791156,184.577374 C199.791156,184.577374 202.873653,185.050699 203.708658,184.788125 L204,184.805399 Z" id="Path" fill="#000000" opacity="0.1"></path>
                <path d="M204.263835,187.218903 C202.785208,187.527913 197.607391,187.50584 197.607391,187.50584 L194.702571,187.93502 C194.702571,187.93502 189.721381,188.381367 189.168206,186.934418 C188.615032,185.487469 189.603405,185.57821 189.603405,185.57821 L189.64273,185.57821 L191.716478,185.421253 C191.716478,185.421253 194.338158,184.4697 195.310801,183.814894 C196.072004,183.260488 196.791195,182.657372 197.463199,182.009887 C197.463199,182.009887 198.328353,181.85293 198.312623,182.789768 L199.272158,182.838817 L200.420453,184.001281 C200.420453,184.001281 203.527143,184.337267 204.368702,184.148428 L204.66233,184.148428 L204.528624,185.583115 L204.565328,185.624807 C204.764576,185.850433 205.585161,186.944228 204.263835,187.218903 Z" id="Path" fill="#354055"></path>
                <ellipse id="Oval" fill="#575988" cx="198" cy="184" rx="1" ry="1"></ellipse>
                <ellipse id="Oval" fill="#575988" cx="195" cy="185" rx="1" ry="1"></ellipse>
                <ellipse id="Oval" fill="#575988" cx="192" cy="186" rx="1" ry="1"></ellipse>
                <ellipse id="Oval" fill="#575988" cx="196" cy="185" rx="1" ry="1"></ellipse>
                <ellipse id="Oval" fill="#575988" cx="194" cy="185" rx="1" ry="1"></ellipse>
                <ellipse id="Oval" fill="#575988" cx="196" cy="185" rx="1" ry="1"></ellipse>
                <ellipse id="Oval" fill="#575988" cx="197" cy="185" rx="1" ry="1"></ellipse>
                <path d="M204.263835,187.355242 C202.785208,187.610315 197.607391,187.592095 197.607391,187.592095 L194.702571,187.946362 C194.702571,187.946362 189.721381,188.3148 189.168206,187.120414 C188.615032,185.926028 189.603405,186.00093 189.603405,186.00093 L189.64273,186.00093 C189.959953,186.318758 190.597021,186.679099 191.847562,186.697318 L195.428776,186.808659 L199.138452,186.606221 C199.138452,186.606221 202.614799,186.52727 203.181081,186.434148 C203.656703,186.335284 204.119955,186.203852 204.565328,186.041418 C204.764576,186.225637 205.585161,187.128512 204.263835,187.355242 Z" id="Path" fill="#DCE6F2"></path>
                <path d="M194.609448,187.999847 C194.403756,188.001883 194.198659,187.983625 194,187.945591 L194.043532,187.833206 C194.550604,187.910836 195.077204,187.894153 195.572595,187.784763 C195.754885,187.749885 195.934455,187.713069 196.116745,187.674315 C196.446011,187.599938 196.781271,187.53976 197.120702,187.49411 C197.669109,187.443347 198.223257,187.431663 198.77492,187.459232 L198.891912,187.459232 C200.540314,187.520931 202.193235,187.468366 203.827356,187.302279 C204.215129,187.283123 204.584539,187.177345 204.883008,187 L205,187.083321 C204.677511,187.278447 204.276518,187.395801 203.854563,187.41854 C202.209609,187.585561 200.545729,187.638127 198.88647,187.575493 L198.766757,187.575493 C198.222335,187.548338 197.675464,187.560023 197.134306,187.610372 C196.802067,187.654506 196.47403,187.713398 196.152115,187.786701 C195.969824,187.825455 195.787534,187.864209 195.607964,187.897149 C195.282258,187.960275 194.946925,187.994764 194.609448,187.999847 L194.609448,187.999847 Z" id="Path" fill="#575988" opacity="0.5"></path>
                <path d="M217,136.971604 L215.851613,138 L213,134.524942 C213.300427,134.363965 213.592191,134.188764 213.874194,134 L217,136.971604 Z" id="Path" fill="#000000" opacity="0.1"></path>
                <path d="M227.673658,113 L229.610227,115.524277 L229.610227,118.168633 C229.610227,118.168633 230.487216,120.969615 229.610227,123.770596 L229.704289,126.216561 C229.704289,126.216561 228.771969,128.464133 229.106719,129.017542 C229.106719,129.017542 228.940728,130.675159 226.683242,131.818524 C224.425756,132.961888 221.863952,135.671505 221.863952,135.671505 C221.863952,135.671505 220.901201,137.407434 218.308965,137.013261 L215.841223,138 L213,134.567297 L216.845472,132.593819 C216.845472,132.593819 218.184471,130.899655 218.978464,130.977968 L222.2402,127.386029 C222.2402,127.386029 222.323195,126.242665 223.158687,126.242665 C223.158687,126.242665 221.612198,125.060144 222.154437,124.35011 C222.696677,123.640075 222.2402,120.481466 222.2402,120.481466 L227.673658,113 Z" id="Path" fill="#263146"></path>
                <path d="M222,125.065913 C222,125.065913 226.40698,125.007036 226.951258,125.807758 C227.495535,126.608479 223.330147,124.620413 222,125.065913 Z" id="Path" fill="#000000" opacity="0.1"></path>
                <path d="M200,183 C200,183 204.15896,183.551587 204.76685,183.670635 C205.37474,183.789683 204.601812,184 204.601812,184 C204.601812,184 200.805936,183.509921 200,183 Z" id="Path" fill="#000000" opacity="0.1"></path>
                <path d="M198,180 C198.080386,180 201.305466,179.262745 202,178" id="Path" fill="#000000" opacity="0.1"></path>
                <path d="M203,166.001074 C203,166.001074 203.558987,167.028257 203.919713,166.999403 C204.280439,166.97055 203.327682,165.962602 203,166.001074 Z" id="Path" fill="#000000" opacity="0.1"></path>
                <path d="M203,167 C203,167 203.404255,168.346708 204,167.914475" id="Path" fill="#000000" opacity="0.1"></path>
                <path d="M205,145.010501 L208.871044,152 C208.871044,152 209.416313,147.502689 208.264388,146.157699 C207.595946,145.372279 206.321723,144.924481 205,145.010501 Z" id="Path" fill="#000000" opacity="0.05"></path>
                <g id="Group" opacity="0.1" transform="translate(208.000000, 88.000000)" fill="#000000">
                    <path d="M3.70339623,0.240701754 L3.67962264,0.14 L3.22528302,0.0270175439 L3.2754717,0.233333333 C3.41785655,0.243152843 3.560718,0.24561277 3.70339623,0.240701754 L3.70339623,0.240701754 Z" id="Path"></path>
                    <path d="M2.45396226,1.91578947 L2.50150943,1.87649123 C2.76692719,1.64624517 2.86925191,1.29611511 2.76566038,0.972631579 C2.71072875,0.849434487 2.63393771,0.735689124 2.53849057,0.636140351 C2.3146922,0.595112919 2.09540989,0.53509571 1.88339623,0.456842105 C1.85698113,0.827719298 2.30603774,1.06842105 2.44603774,1.41719298 C2.510918,1.57748473 2.51372006,1.75378505 2.45396226,1.91578947 L2.45396226,1.91578947 Z" id="Path"></path>
                    <path d="M10.0060377,13.3294737 C9.51366503,13.0408863 9.13758413,12.6091712 8.93622642,12.1014035 C8.71169811,11.6101754 8.57169811,11.0796491 8.34188679,10.5884211 C8.09087027,10.0485997 7.73237599,9.55776131 7.28528302,9.14175439 C7.20900177,9.06003776 7.11179115,8.99752586 7.00264151,8.96 C6.79509079,8.93454213 6.58532633,8.98862255 6.42150943,9.10982456 C6.15260799,9.27920947 5.85273096,9.40156307 5.53660377,9.47087719 C5.21493403,9.53850837 4.87860605,9.44543515 4.6490566,9.22526316 C4.40075472,8.95017544 4.43509434,8.54491228 4.50641509,8.19368421 C4.66226415,7.42736842 4.92113208,6.66842105 4.92377358,5.88982456 C4.92641509,5.11122807 4.60415094,4.26631579 3.86716981,3.88070175 C3.22264151,3.53929825 2.42226415,3.63508772 1.70641509,3.44350877 C1.33921863,3.34960502 0.996672167,3.18658905 0.7,2.9645614 C0.681132017,2.95028533 0.6634701,2.93468397 0.647169811,2.91789474 C0.58714107,2.93929566 0.528872957,2.96474343 0.472830189,2.99403509 C0.356603774,3.05052632 0.23245283,3.15368421 0.264150943,3.27157895 C0.288028839,3.3274809 0.329447598,3.37540717 0.383018868,3.40912281 C0.678412051,3.6315649 1.02019597,3.79464601 1.38679245,3.88807018 C2.10264151,4.06982456 2.90301887,3.98385965 3.54754717,4.32526316 C4.27660377,4.71087719 4.60415094,5.55333333 4.60415094,6.33438596 C4.60415094,7.1154386 4.34,7.87192982 4.18679245,8.63824561 C4.1154717,8.99192982 4.08113208,9.39473684 4.32943396,9.66982456 C4.55898341,9.88999656 4.89531139,9.98306978 5.21698113,9.9154386 C5.53313401,9.84745991 5.83311031,9.72589842 6.10188679,9.55684211 C6.26486192,9.43398523 6.47503323,9.37891163 6.68301887,9.4045614 C6.79201135,9.44236772 6.88915238,9.50483487 6.96566038,9.58631579 C7.41173224,10.0031068 7.77008727,10.4937546 8.02226415,11.0329825 C8.25471698,11.5242105 8.39207547,12.0522807 8.61924528,12.5484211 C8.81716792,13.0543937 9.18840844,13.4858794 9.67584906,13.7764912 C10.1803774,14.0368421 10.8856604,14.0221053 11.2607547,13.6192982 C11.3646646,13.5099436 11.4453344,13.3832622 11.4984906,13.2459649 C11.0632785,13.5476623 10.4770191,13.5804659 10.0060377,13.3294737 L10.0060377,13.3294737 Z" id="Path"></path>
                    <path d="M12.2883019,11.4407018 C12.6871698,10.9715789 13.2128302,10.5712281 13.5879245,10.08 C13.6618868,9.98175439 13.730566,9.87859649 13.7939623,9.7754386 C13.310566,10.3477193 12.6475472,10.8021053 12.2883019,11.4407018 Z" id="Path"></path>
                </g>
            </g>
        </g>
    </g>
</svg>